<?xml version="1.0" encoding="iso-8859-1"?>
<!-- Uploaded to: SVG Repo, www.svgrepo.com, Generator: SVG Repo Mixer Tools -->
<svg height="200px" version="1.1" id="Layer_1" xmlns="http://www.w3.org/2000/svg" xmlns:xlink="http://www.w3.org/1999/xlink" 
	 viewBox="0 0 512 512" xml:space="preserve">
<g transform="translate(0 1)">
	<path style="fill:#FCC309;" d="M332.8,485.4H179.2c0-18.773,15.36-34.133,34.133-34.133h85.333
		C317.44,451.267,332.8,466.627,332.8,485.4"/>
	<path style="fill:#FD9808;" d="M324.267,451.267h-25.6c18.773,0,34.133,15.36,34.133,34.133h25.6
		C358.4,466.627,343.04,451.267,324.267,451.267"/>
	<path style="fill:#FFFFFF;" d="M213.333,451.267h-25.6c-18.773,0-34.133,15.36-34.133,34.133h25.6
		C179.2,466.627,194.56,451.267,213.333,451.267"/>
	<polygon style="fill:#FCC309;" points="290.133,451.267 221.867,451.267 231.253,383 280.747,383 	"/>
	<polygon style="fill:#FFFFFF;" points="213.333,383 196.267,451.267 221.867,451.267 231.253,383 	"/>
	<polygon style="fill:#FD9808;" points="298.667,383 280.747,383 290.133,451.267 315.733,451.267 	"/>
	<g>
		<path style="fill:#FFDD09;" d="M349.867,442.733h-25.6c18.773,0,34.133,23.04,34.133,51.2h17.067c5.12,0,8.533-7.68,7.68-14.507
			C378.027,458.093,365.227,442.733,349.867,442.733"/>
		<polygon style="fill:#FFDD09;" points="324.267,383 306.347,383 315.733,451.267 341.333,451.267 		"/>
		<path style="fill:#FFDD09;" d="M477.867,314.733H34.133V54.467C34.133,38.253,47.787,24.6,64,24.6h384
			c16.213,0,29.867,13.653,29.867,29.867V314.733z"/>
	</g>
	<path style="fill:#FFFFFF;" d="M64,24.6H38.4c-16.213,0-29.867,13.653-29.867,29.867v260.267h25.6V54.467
		C34.133,38.253,47.787,24.6,64,24.6"/>
	<path style="fill:#FD9808;" d="M473.6,24.6H448c16.213,0,29.867,13.653,29.867,29.867v260.267h25.6V54.467
		C503.467,38.253,489.813,24.6,473.6,24.6"/>
	<path style="fill:#FCC309;" d="M448,383H64c-16.213,0-29.867-13.653-29.867-29.867v-38.4h443.733v38.4
		C477.867,369.347,464.213,383,448,383"/>
	<path style="fill:#FFFFFF;" d="M34.133,353.133v-38.4h-25.6v38.4C8.533,369.347,22.187,383,38.4,383H64
		C47.787,383,34.133,369.347,34.133,353.133"/>
	<path style="fill:#FD9808;" d="M477.867,314.733v38.4C477.867,369.347,464.213,383,448,383h25.6
		c16.213,0,29.867-13.653,29.867-29.867v-38.4H477.867z"/>
	<path d="M503.467,323.267H8.533c-5.12,0-8.533-3.413-8.533-8.533V280.6c0-5.12,3.413-8.533,8.533-8.533s8.533,3.413,8.533,8.533
		v25.6h477.867V54.467c0-11.947-9.387-21.333-21.333-21.333H38.4c-11.947,0-21.333,9.387-21.333,21.333v157.867
		c0,5.12-3.413,8.533-8.533,8.533S0,217.453,0,212.333V54.467c0-21.333,17.067-38.4,38.4-38.4h435.2c21.333,0,38.4,17.067,38.4,38.4
		v260.267C512,319.853,508.587,323.267,503.467,323.267z"/>
	<path d="M17.067,246.467c0-5.12-3.413-8.533-8.533-8.533S0,241.347,0,246.467C0,251.587,3.413,255,8.533,255
		S17.067,251.587,17.067,246.467"/>
	<polygon style="fill:#15A143;" points="85.333,178.2 204.8,178.2 204.8,58.733 85.333,58.733 	"/>
	<polygon style="fill:#1CD759;" points="85.333,178.2 179.2,178.2 179.2,58.733 85.333,58.733 	"/>
	<path d="M358.4,493.933H153.6c-5.12,0-8.533-3.413-8.533-8.533c0-23.893,18.773-42.667,42.667-42.667h136.533
		c23.893,0,42.667,18.773,42.667,42.667C366.933,490.52,363.52,493.933,358.4,493.933z M163.84,476.867h185.173
		c-3.413-10.24-12.8-17.067-23.893-17.067H187.733C176.64,459.8,167.253,466.627,163.84,476.867z"/>
	<path d="M315.733,459.8H196.267c-2.56,0-5.12-0.853-6.827-3.413c-1.707-1.707-1.707-4.267-1.707-6.827l17.067-68.267
		c0.853-3.413,4.267-6.827,8.533-6.827h85.333c4.267,0,7.68,2.56,8.533,6.827l17.067,68.267c0.853,2.56,0,5.12-1.707,7.68
		C320.853,458.947,318.293,459.8,315.733,459.8z M207.36,442.733h97.28l-12.8-51.2h-71.68L207.36,442.733z"/>
	<path d="M473.6,391.533H38.4c-21.333,0-38.4-17.067-38.4-38.4v-38.4c0-5.12,3.413-8.533,8.533-8.533h494.933
		c5.12,0,8.533,3.413,8.533,8.533v38.4C512,374.467,494.933,391.533,473.6,391.533z M17.067,323.267v29.867
		c0,11.947,9.387,21.333,21.333,21.333h435.2c11.947,0,21.333-9.387,21.333-21.333v-29.867H17.067z"/>
	<path d="M426.667,280.6h-128c-5.12,0-8.533-3.413-8.533-8.533s3.413-8.533,8.533-8.533h128c5.12,0,8.533,3.413,8.533,8.533
		S431.787,280.6,426.667,280.6z"/>
	<path d="M170.667,229.4H85.333c-5.12,0-8.533-3.413-8.533-8.533c0-5.12,3.413-8.533,8.533-8.533h85.333
		c5.12,0,8.533,3.413,8.533,8.533C179.2,225.987,175.787,229.4,170.667,229.4z"/>
	<path d="M384,229.4H256c-5.12,0-8.533-3.413-8.533-8.533c0-5.12,3.413-8.533,8.533-8.533h128c5.12,0,8.533,3.413,8.533,8.533
		C392.533,225.987,389.12,229.4,384,229.4z"/>
	<path d="M256,280.6H128c-5.12,0-8.533-3.413-8.533-8.533s3.413-8.533,8.533-8.533h128c5.12,0,8.533,3.413,8.533,8.533
		S261.12,280.6,256,280.6z"/>
	<path d="M426.667,127h-128c-5.12,0-8.533-3.413-8.533-8.533s3.413-8.533,8.533-8.533h128c5.12,0,8.533,3.413,8.533,8.533
		S431.787,127,426.667,127z"/>
	<path d="M426.667,178.2h-85.333c-5.12,0-8.533-3.413-8.533-8.533c0-5.12,3.413-8.533,8.533-8.533h85.333
		c5.12,0,8.533,3.413,8.533,8.533C435.2,174.787,431.787,178.2,426.667,178.2z"/>
	<path d="M273.067,178.2H256c-5.12,0-8.533-3.413-8.533-8.533c0-5.12,3.413-8.533,8.533-8.533h17.067
		c5.12,0,8.533,3.413,8.533,8.533C281.6,174.787,278.187,178.2,273.067,178.2z"/>
	<path d="M384,75.8H256c-5.12,0-8.533-3.413-8.533-8.533s3.413-8.533,8.533-8.533h128c5.12,0,8.533,3.413,8.533,8.533
		S389.12,75.8,384,75.8z"/>
	<path d="M213.333,186.733H76.8V50.2h136.533V186.733z M93.867,169.667h102.4v-102.4h-102.4V169.667z"/>
</g>
</svg>